<mxfile host="app.diagrams.net" modified="2023-08-10T08:28:08.963Z" agent="Mozilla/5.0 (Windows NT 10.0; Win64; x64) AppleWebKit/537.36 (KHTML, like Gecko) Chrome/115.0.0.0 Safari/537.36" version="21.6.7" etag="9hX2Qs6IZXmKeK07tMCL" type="github">
  <diagram name="Page-1" id="8KNY-WCkXXdS3BKGqvmP">
    <mxGraphModel>
      <root>
        <mxCell id="0" />
        <mxCell id="1" parent="0" />
      </root>
    </mxGraphModel>
  </diagram>
</mxfile>
